<?xml version="1.0" encoding="UTF-8" standalone="no"?>
<!DOCTYPE svg PUBLIC "-//W3C//DTD SVG 1.1//EN" "http://www.w3.org/Graphics/SVG/1.1/DTD/svg11.dtd"
[
<!ATTLIST g
  xmlns:vectornator CDATA #FIXED "http://vectornator.io"
  vectornator:layerName CDATA #IMPLIED >
<!ATTLIST g
  xmlns:vectornator CDATA #FIXED "http://vectornator.io"
  vectornator:mask CDATA #IMPLIED >
<!ATTLIST text
  xmlns:vectornator CDATA #FIXED "http://vectornator.io"
  vectornator:width CDATA #IMPLIED >

<!ATTLIST path
  xmlns:vectornator CDATA #FIXED "http://vectornator.io"
  vectornator:blendMode CDATA #IMPLIED >
<!ATTLIST path
  xmlns:vectornator CDATA #FIXED "http://vectornator.io"
  vectornator:shadowColor CDATA #IMPLIED >
<!ATTLIST path
  xmlns:vectornator CDATA #FIXED "http://vectornator.io"
  vectornator:shadowOpacity CDATA #IMPLIED >
<!ATTLIST path
  xmlns:vectornator CDATA #FIXED "http://vectornator.io"
  vectornator:shadowRadius CDATA #IMPLIED >
<!ATTLIST path
  xmlns:vectornator CDATA #FIXED "http://vectornator.io"
  vectornator:shadowOffset CDATA #IMPLIED >
<!ATTLIST path
  xmlns:vectornator CDATA #FIXED "http://vectornator.io"
  vectornator:shadowAngle CDATA #IMPLIED >

<!ATTLIST image
  xmlns:vectornator CDATA #FIXED "http://vectornator.io"
  vectornator:blendMode CDATA #IMPLIED >
<!ATTLIST image
  xmlns:vectornator CDATA #FIXED "http://vectornator.io"
  vectornator:shadowColor CDATA #IMPLIED >
<!ATTLIST image
  xmlns:vectornator CDATA #FIXED "http://vectornator.io"
  vectornator:shadowOpacity CDATA #IMPLIED >
<!ATTLIST image
  xmlns:vectornator CDATA #FIXED "http://vectornator.io"
  vectornator:shadowRadius CDATA #IMPLIED >
<!ATTLIST image
  xmlns:vectornator CDATA #FIXED "http://vectornator.io"
  vectornator:shadowOffset CDATA #IMPLIED >
<!ATTLIST image
  xmlns:vectornator CDATA #FIXED "http://vectornator.io"
  vectornator:shadowAngle CDATA #IMPLIED >

<!ATTLIST g
  xmlns:vectornator CDATA #FIXED "http://vectornator.io"
  vectornator:blendMode CDATA #IMPLIED >
<!ATTLIST g
  xmlns:vectornator CDATA #FIXED "http://vectornator.io"
  vectornator:shadowColor CDATA #IMPLIED >
<!ATTLIST g
  xmlns:vectornator CDATA #FIXED "http://vectornator.io"
  vectornator:shadowOpacity CDATA #IMPLIED >
<!ATTLIST g
  xmlns:vectornator CDATA #FIXED "http://vectornator.io"
  vectornator:shadowRadius CDATA #IMPLIED >
<!ATTLIST g
  xmlns:vectornator CDATA #FIXED "http://vectornator.io"
  vectornator:shadowOffset CDATA #IMPLIED >
<!ATTLIST g
  xmlns:vectornator CDATA #FIXED "http://vectornator.io"
  vectornator:shadowAngle CDATA #IMPLIED >

<!ENTITY % SVG.filter.extra.content  "| feDropShadow" >
<!ELEMENT feDropShadow EMPTY>
<!ATTLIST feDropShadow
  xmlns:svg CDATA #FIXED "http://www.w3.org/Graphics/SVG/1.1/DTD/svg11.dtd"
  dx CDATA #IMPLIED>
<!ATTLIST feDropShadow
  xmlns:svg CDATA #FIXED "http://www.w3.org/Graphics/SVG/1.1/DTD/svg11.dtd"
  dy CDATA #IMPLIED>
<!ATTLIST feDropShadow
  xmlns:svg CDATA #FIXED "http://www.w3.org/Graphics/SVG/1.1/DTD/svg11.dtd"
  stdDeviation CDATA #IMPLIED>
<!ATTLIST feDropShadow
  xmlns:svg CDATA #FIXED "http://www.w3.org/Graphics/SVG/1.1/DTD/svg11.dtd"
  flood-opacity CDATA #IMPLIED>
<!ATTLIST feDropShadow
  xmlns:svg CDATA #FIXED "http://www.w3.org/Graphics/SVG/1.1/DTD/svg11.dtd"
  in CDATA #IMPLIED>
<!ATTLIST feDropShadow
  xmlns:svg CDATA #FIXED "http://www.w3.org/Graphics/SVG/1.1/DTD/svg11.dtd"
  result CDATA #IMPLIED>
<!ATTLIST feDropShadow
  xmlns:svg CDATA #FIXED "http://www.w3.org/Graphics/SVG/1.1/DTD/svg11.dtd"
  flood-color CDATA #IMPLIED>
]
>
<!-- Created with Vectornator (http://vectornator.io/) -->
<svg height="100%" stroke-miterlimit="10" style="fill-rule:nonzero;clip-rule:evenodd;stroke-linecap:round;stroke-linejoin:round;" version="1.1" viewBox="0 0 419.58 297.675" width="100%" xml:space="preserve" xmlns="http://www.w3.org/2000/svg" xmlns:vectornator="http://vectornator.io" xmlns:xlink="http://www.w3.org/1999/xlink">
<defs>
<clipPath id="TextBounds">
<rect height="71.2465" width="66.7092" x="143.585" y="146.142"/>
</clipPath>
<clipPath id="TextBounds_2">
<rect height="1" width="94.6992" x="153.159" y="155.738"/>
</clipPath>
</defs>
<g id="Layer-1" vectornator:layerName="Layer 1">
<path d="M131.384 110.305L215.138 110.305C218.486 110.305 221.199 113.018 221.199 116.365L221.199 262.583C221.199 265.931 218.486 268.644 215.138 268.644L131.384 268.644C128.037 268.644 125.324 265.931 125.324 262.583L125.324 116.365C125.324 113.018 128.037 110.305 131.384 110.305Z" fill="#75b1d7" fill-rule="evenodd" opacity="1" stroke="none"/>
<g fill="#1f2326" opacity="1" stroke="none">
<path clip-path="url(#TextBounds)" d="M149.87 160.386L149.87 157.017C153.044 156.708 155.257 156.191 156.51 155.466C157.764 154.742 158.699 153.029 159.318 150.327L162.785 150.327L162.785 185.142L158.097 185.142L158.097 160.386L149.87 160.386Z" fill-rule="evenodd"/>
<path clip-path="url(#TextBounds)" d="M185.88 186.094C181.746 186.094 178.747 184.959 176.884 182.688C175.02 180.418 174.088 177.655 174.088 174.4L178.678 174.4C178.874 176.662 179.297 178.306 179.948 179.331C181.087 181.17 183.146 182.09 186.125 182.09C188.436 182.09 190.291 181.472 191.691 180.235C193.091 178.998 193.791 177.402 193.791 175.449C193.791 173.041 193.054 171.356 191.581 170.396C190.108 169.435 188.061 168.955 185.441 168.955C185.148 168.955 184.851 168.959 184.55 168.967C184.249 168.976 183.944 168.988 183.634 169.004L183.634 165.122C184.09 165.171 184.473 165.204 184.782 165.22C185.091 165.236 185.425 165.244 185.783 165.244C187.427 165.244 188.778 164.984 189.835 164.463C191.691 163.552 192.619 161.924 192.619 159.58C192.619 157.839 192 156.496 190.763 155.552C189.526 154.608 188.086 154.136 186.442 154.136C183.512 154.136 181.486 155.112 180.363 157.066C179.744 158.14 179.394 159.67 179.313 161.655L174.967 161.655C174.967 159.051 175.488 156.838 176.53 155.015C178.32 151.76 181.47 150.132 185.978 150.132C189.543 150.132 192.301 150.925 194.254 152.512C196.208 154.099 197.184 156.398 197.184 159.409C197.184 161.558 196.606 163.299 195.451 164.634C194.735 165.464 193.807 166.115 192.668 166.587C194.507 167.092 195.943 168.064 196.977 169.505C198.01 170.945 198.527 172.707 198.527 174.79C198.527 178.127 197.428 180.845 195.231 182.944C193.034 185.044 189.917 186.094 185.88 186.094Z" fill-rule="evenodd"/>
</g>
<g fill="#1f2326" opacity="1" stroke="none"/>
</g>
</svg>
