<?xml version="1.0" encoding="UTF-8" standalone="no"?>
<!DOCTYPE svg PUBLIC "-//W3C//DTD SVG 1.1//EN" "http://www.w3.org/Graphics/SVG/1.1/DTD/svg11.dtd"
[
<!ATTLIST g
  xmlns:vectornator CDATA #FIXED "http://vectornator.io"
  vectornator:layerName CDATA #IMPLIED >
<!ATTLIST g
  xmlns:vectornator CDATA #FIXED "http://vectornator.io"
  vectornator:mask CDATA #IMPLIED >
<!ATTLIST text
  xmlns:vectornator CDATA #FIXED "http://vectornator.io"
  vectornator:width CDATA #IMPLIED >

<!ATTLIST path
  xmlns:vectornator CDATA #FIXED "http://vectornator.io"
  vectornator:blendMode CDATA #IMPLIED >
<!ATTLIST path
  xmlns:vectornator CDATA #FIXED "http://vectornator.io"
  vectornator:shadowColor CDATA #IMPLIED >
<!ATTLIST path
  xmlns:vectornator CDATA #FIXED "http://vectornator.io"
  vectornator:shadowOpacity CDATA #IMPLIED >
<!ATTLIST path
  xmlns:vectornator CDATA #FIXED "http://vectornator.io"
  vectornator:shadowRadius CDATA #IMPLIED >
<!ATTLIST path
  xmlns:vectornator CDATA #FIXED "http://vectornator.io"
  vectornator:shadowOffset CDATA #IMPLIED >
<!ATTLIST path
  xmlns:vectornator CDATA #FIXED "http://vectornator.io"
  vectornator:shadowAngle CDATA #IMPLIED >

<!ATTLIST image
  xmlns:vectornator CDATA #FIXED "http://vectornator.io"
  vectornator:blendMode CDATA #IMPLIED >
<!ATTLIST image
  xmlns:vectornator CDATA #FIXED "http://vectornator.io"
  vectornator:shadowColor CDATA #IMPLIED >
<!ATTLIST image
  xmlns:vectornator CDATA #FIXED "http://vectornator.io"
  vectornator:shadowOpacity CDATA #IMPLIED >
<!ATTLIST image
  xmlns:vectornator CDATA #FIXED "http://vectornator.io"
  vectornator:shadowRadius CDATA #IMPLIED >
<!ATTLIST image
  xmlns:vectornator CDATA #FIXED "http://vectornator.io"
  vectornator:shadowOffset CDATA #IMPLIED >
<!ATTLIST image
  xmlns:vectornator CDATA #FIXED "http://vectornator.io"
  vectornator:shadowAngle CDATA #IMPLIED >

<!ATTLIST g
  xmlns:vectornator CDATA #FIXED "http://vectornator.io"
  vectornator:blendMode CDATA #IMPLIED >
<!ATTLIST g
  xmlns:vectornator CDATA #FIXED "http://vectornator.io"
  vectornator:shadowColor CDATA #IMPLIED >
<!ATTLIST g
  xmlns:vectornator CDATA #FIXED "http://vectornator.io"
  vectornator:shadowOpacity CDATA #IMPLIED >
<!ATTLIST g
  xmlns:vectornator CDATA #FIXED "http://vectornator.io"
  vectornator:shadowRadius CDATA #IMPLIED >
<!ATTLIST g
  xmlns:vectornator CDATA #FIXED "http://vectornator.io"
  vectornator:shadowOffset CDATA #IMPLIED >
<!ATTLIST g
  xmlns:vectornator CDATA #FIXED "http://vectornator.io"
  vectornator:shadowAngle CDATA #IMPLIED >

<!ENTITY % SVG.filter.extra.content  "| feDropShadow" >
<!ELEMENT feDropShadow EMPTY>
<!ATTLIST feDropShadow
  xmlns:svg CDATA #FIXED "http://www.w3.org/Graphics/SVG/1.1/DTD/svg11.dtd"
  dx CDATA #IMPLIED>
<!ATTLIST feDropShadow
  xmlns:svg CDATA #FIXED "http://www.w3.org/Graphics/SVG/1.1/DTD/svg11.dtd"
  dy CDATA #IMPLIED>
<!ATTLIST feDropShadow
  xmlns:svg CDATA #FIXED "http://www.w3.org/Graphics/SVG/1.1/DTD/svg11.dtd"
  stdDeviation CDATA #IMPLIED>
<!ATTLIST feDropShadow
  xmlns:svg CDATA #FIXED "http://www.w3.org/Graphics/SVG/1.1/DTD/svg11.dtd"
  flood-opacity CDATA #IMPLIED>
<!ATTLIST feDropShadow
  xmlns:svg CDATA #FIXED "http://www.w3.org/Graphics/SVG/1.1/DTD/svg11.dtd"
  in CDATA #IMPLIED>
<!ATTLIST feDropShadow
  xmlns:svg CDATA #FIXED "http://www.w3.org/Graphics/SVG/1.1/DTD/svg11.dtd"
  result CDATA #IMPLIED>
<!ATTLIST feDropShadow
  xmlns:svg CDATA #FIXED "http://www.w3.org/Graphics/SVG/1.1/DTD/svg11.dtd"
  flood-color CDATA #IMPLIED>
]
>
<!-- Created with Vectornator (http://vectornator.io/) -->
<svg height="100%" stroke-miterlimit="10" style="fill-rule:nonzero;clip-rule:evenodd;stroke-linecap:round;stroke-linejoin:round;" version="1.1" viewBox="0 0 419.58 297.675" width="100%" xml:space="preserve" xmlns="http://www.w3.org/2000/svg" xmlns:vectornator="http://vectornator.io" xmlns:xlink="http://www.w3.org/1999/xlink">
<defs>
<clipPath id="TextBounds">
<rect height="71.2465" width="66.7092" x="143.585" y="146.142"/>
</clipPath>
<clipPath id="TextBounds_2">
<rect height="1" width="94.6992" x="153.159" y="155.738"/>
</clipPath>
<clipPath id="TextBounds_3">
<rect height="39.7937" width="71.3487" x="140.923" y="198.421"/>
</clipPath>
</defs>
<g id="Layer-1" vectornator:layerName="Layer 1">
<path d="M131.384 110.305L215.138 110.305C218.486 110.305 221.199 113.018 221.199 116.365L221.199 262.583C221.199 265.931 218.486 268.644 215.138 268.644L131.384 268.644C128.037 268.644 125.324 265.931 125.324 262.583L125.324 116.365C125.324 113.018 128.037 110.305 131.384 110.305Z" fill="#75b1d7" fill-rule="evenodd" opacity="1" stroke="none"/>
<g fill="#1f2326" opacity="1" stroke="none">
<path clip-path="url(#TextBounds)" d="M149.87 160.386L149.87 157.017C153.044 156.708 155.257 156.191 156.51 155.466C157.764 154.742 158.699 153.029 159.318 150.327L162.785 150.327L162.785 185.142L158.097 185.142L158.097 160.386L149.87 160.386Z" fill-rule="evenodd"/>
<path clip-path="url(#TextBounds)" d="M186.418 150.181C190.942 150.181 194.214 152.044 196.232 155.772C197.794 158.652 198.576 162.599 198.576 167.612C198.576 172.365 197.868 176.296 196.452 179.404C194.401 183.864 191.048 186.094 186.393 186.094C182.194 186.094 179.069 184.271 177.018 180.625C175.309 177.582 174.455 173.496 174.455 168.369C174.455 164.398 174.967 160.988 175.993 158.14C177.913 152.834 181.388 150.181 186.418 150.181ZM186.369 182.09C188.647 182.09 190.462 181.081 191.813 179.063C193.164 177.044 193.839 173.285 193.839 167.783C193.839 163.812 193.351 160.545 192.375 157.981C191.398 155.418 189.502 154.136 186.686 154.136C184.098 154.136 182.206 155.353 181.01 157.786C179.814 160.219 179.215 163.804 179.215 168.54C179.215 172.105 179.598 174.969 180.363 177.134C181.535 180.438 183.537 182.09 186.369 182.09Z" fill-rule="evenodd"/>
</g>
<g fill="#1f2326" opacity="1" stroke="none"/>
<g fill="#1f2326" opacity="1" stroke="none">
<path clip-path="url(#TextBounds_3)" d="M145.216 228.792C145.262 229.606 145.454 230.267 145.793 230.775C146.437 231.725 147.573 232.201 149.201 232.201C149.93 232.201 150.594 232.096 151.193 231.888C152.352 231.484 152.931 230.762 152.931 229.72C152.931 228.939 152.687 228.382 152.199 228.05C151.704 227.725 150.929 227.442 149.875 227.201L147.931 226.761C146.662 226.475 145.763 226.159 145.236 225.814C144.324 225.215 143.869 224.32 143.869 223.128C143.869 221.839 144.315 220.781 145.207 219.955C146.099 219.128 147.362 218.714 148.996 218.714C150.5 218.714 151.777 219.077 152.829 219.803C153.88 220.529 154.406 221.69 154.406 223.285L152.58 223.285C152.482 222.516 152.274 221.927 151.955 221.517C151.362 220.768 150.356 220.394 148.937 220.394C147.791 220.394 146.968 220.635 146.466 221.117C145.965 221.598 145.714 222.158 145.714 222.796C145.714 223.499 146.007 224.014 146.593 224.339C146.977 224.548 147.847 224.808 149.201 225.121L151.213 225.58C152.183 225.801 152.931 226.104 153.459 226.488C154.37 227.158 154.826 228.132 154.826 229.408C154.826 230.996 154.248 232.132 153.092 232.816C151.937 233.499 150.594 233.841 149.064 233.841C147.28 233.841 145.884 233.386 144.875 232.474C143.866 231.569 143.371 230.342 143.39 228.792L145.216 228.792ZM150.207 217.552L148.351 217.552L146.369 214.73L147.961 214.73L149.279 216.605L150.597 214.73L152.199 214.73L150.207 217.552Z" fill-rule="evenodd"/>
<path clip-path="url(#TextBounds_3)" d="M157.472 219.076L163.927 219.076C165.203 219.076 166.232 219.435 167.013 220.155C167.795 220.874 168.185 221.885 168.185 223.187C168.185 224.307 167.837 225.282 167.14 226.112C166.444 226.942 165.373 227.357 163.927 227.357L159.416 227.357L159.416 233.421L157.472 233.421L157.472 219.076ZM166.222 223.197C166.222 222.142 165.832 221.426 165.05 221.048C164.621 220.846 164.032 220.746 163.283 220.746L159.416 220.746L159.416 225.716L163.283 225.716C164.155 225.716 164.863 225.531 165.407 225.16C165.95 224.789 166.222 224.134 166.222 223.197Z" fill-rule="evenodd"/>
<path clip-path="url(#TextBounds_3)" d="M171.066 219.076L173.029 219.076L173.029 233.421L171.066 233.421L171.066 219.076Z" fill-rule="evenodd"/>
<path clip-path="url(#TextBounds_3)" d="M182.375 218.685C184.907 218.685 186.782 219.499 188 221.126C188.95 222.396 189.425 224.02 189.425 225.999C189.425 228.141 188.882 229.922 187.795 231.341C186.519 233.008 184.699 233.841 182.336 233.841C180.129 233.841 178.394 233.112 177.13 231.654C176.004 230.248 175.441 228.47 175.441 226.322C175.441 224.382 175.923 222.721 176.886 221.341C178.123 219.57 179.953 218.685 182.375 218.685ZM182.57 232.103C184.282 232.103 185.521 231.489 186.286 230.262C187.051 229.035 187.433 227.624 187.433 226.029C187.433 224.343 186.992 222.985 186.11 221.956C185.228 220.928 184.022 220.414 182.492 220.414C181.007 220.414 179.797 220.923 178.859 221.942C177.922 222.961 177.453 224.463 177.453 226.449C177.453 228.037 177.855 229.377 178.659 230.467C179.463 231.558 180.767 232.103 182.57 232.103Z" fill-rule="evenodd"/>
<path clip-path="url(#TextBounds_3)" d="M191.74 219.076L194.035 219.076L201.281 230.697L201.281 219.076L203.127 219.076L203.127 233.421L200.949 233.421L193.595 221.81L193.595 233.421L191.74 233.421L191.74 219.076Z" fill-rule="evenodd"/>
</g>
</g>
</svg>
