<svg xmlns="http://www.w3.org/2000/svg" xmlns:vectornator="http://vectornator.io" xmlns:xlink="http://www.w3.org/1999/xlink" stroke-miterlimit="10" style="fill-rule:nonzero;clip-rule:evenodd;stroke-linecap:round;stroke-linejoin:round;" version="1.1" xml:space="preserve" viewBox="125.32 110.31 95.88 158.34">
<defs>
<clipPath id="TextBounds">
<rect height="71.2465" width="41.8434" x="159.963" y="146.142"/>
</clipPath>
</defs>
<g id="Layer-1" vectornator:layerName="Layer 1">
<path d="M131.384 110.305L215.138 110.305C218.486 110.305 221.199 113.018 221.199 116.365L221.199 262.583C221.199 265.931 218.486 268.644 215.138 268.644L131.384 268.644C128.037 268.644 125.324 265.931 125.324 262.583L125.324 116.365C125.324 113.018 128.037 110.305 131.384 110.305Z" fill="#75b1d7" fill-rule="evenodd" opacity="1" stroke="none"/>
<path clip-path="url(#TextBounds)" d="M163.026 185.142C163.189 182.131 163.811 179.51 164.894 177.28C165.976 175.051 168.088 173.024 171.229 171.201L175.917 168.491C178.016 167.271 179.489 166.229 180.335 165.366C181.67 164.015 182.337 162.469 182.337 160.728C182.337 158.693 181.727 157.078 180.506 155.882C179.286 154.685 177.658 154.087 175.624 154.087C172.613 154.087 170.529 155.226 169.374 157.505C168.755 158.726 168.413 160.418 168.348 162.583L163.88 162.583C163.929 159.54 164.491 157.057 165.565 155.137C167.469 151.751 170.83 150.059 175.648 150.059C179.652 150.059 182.578 151.141 184.425 153.306C186.272 155.471 187.196 157.879 187.196 160.532C187.196 163.332 186.211 165.724 184.242 167.71C183.102 168.866 181.06 170.265 178.114 171.909L174.769 173.765C173.174 174.644 171.921 175.482 171.009 176.279C169.382 177.695 168.356 179.266 167.933 180.991L187.025 180.991L187.025 185.142L163.026 185.142Z" fill="#1f2326" fill-rule="evenodd" opacity="1" stroke="none"/>
</g>
</svg>