<?xml version="1.0" encoding="UTF-8" standalone="no"?>
<!DOCTYPE svg PUBLIC "-//W3C//DTD SVG 1.1//EN" "http://www.w3.org/Graphics/SVG/1.1/DTD/svg11.dtd"
[
<!ATTLIST g
  xmlns:vectornator CDATA #FIXED "http://vectornator.io"
  vectornator:layerName CDATA #IMPLIED >
<!ATTLIST g
  xmlns:vectornator CDATA #FIXED "http://vectornator.io"
  vectornator:mask CDATA #IMPLIED >
<!ATTLIST text
  xmlns:vectornator CDATA #FIXED "http://vectornator.io"
  vectornator:width CDATA #IMPLIED >

<!ATTLIST path
  xmlns:vectornator CDATA #FIXED "http://vectornator.io"
  vectornator:blendMode CDATA #IMPLIED >
<!ATTLIST path
  xmlns:vectornator CDATA #FIXED "http://vectornator.io"
  vectornator:shadowColor CDATA #IMPLIED >
<!ATTLIST path
  xmlns:vectornator CDATA #FIXED "http://vectornator.io"
  vectornator:shadowOpacity CDATA #IMPLIED >
<!ATTLIST path
  xmlns:vectornator CDATA #FIXED "http://vectornator.io"
  vectornator:shadowRadius CDATA #IMPLIED >
<!ATTLIST path
  xmlns:vectornator CDATA #FIXED "http://vectornator.io"
  vectornator:shadowOffset CDATA #IMPLIED >
<!ATTLIST path
  xmlns:vectornator CDATA #FIXED "http://vectornator.io"
  vectornator:shadowAngle CDATA #IMPLIED >

<!ATTLIST image
  xmlns:vectornator CDATA #FIXED "http://vectornator.io"
  vectornator:blendMode CDATA #IMPLIED >
<!ATTLIST image
  xmlns:vectornator CDATA #FIXED "http://vectornator.io"
  vectornator:shadowColor CDATA #IMPLIED >
<!ATTLIST image
  xmlns:vectornator CDATA #FIXED "http://vectornator.io"
  vectornator:shadowOpacity CDATA #IMPLIED >
<!ATTLIST image
  xmlns:vectornator CDATA #FIXED "http://vectornator.io"
  vectornator:shadowRadius CDATA #IMPLIED >
<!ATTLIST image
  xmlns:vectornator CDATA #FIXED "http://vectornator.io"
  vectornator:shadowOffset CDATA #IMPLIED >
<!ATTLIST image
  xmlns:vectornator CDATA #FIXED "http://vectornator.io"
  vectornator:shadowAngle CDATA #IMPLIED >

<!ATTLIST g
  xmlns:vectornator CDATA #FIXED "http://vectornator.io"
  vectornator:blendMode CDATA #IMPLIED >
<!ATTLIST g
  xmlns:vectornator CDATA #FIXED "http://vectornator.io"
  vectornator:shadowColor CDATA #IMPLIED >
<!ATTLIST g
  xmlns:vectornator CDATA #FIXED "http://vectornator.io"
  vectornator:shadowOpacity CDATA #IMPLIED >
<!ATTLIST g
  xmlns:vectornator CDATA #FIXED "http://vectornator.io"
  vectornator:shadowRadius CDATA #IMPLIED >
<!ATTLIST g
  xmlns:vectornator CDATA #FIXED "http://vectornator.io"
  vectornator:shadowOffset CDATA #IMPLIED >
<!ATTLIST g
  xmlns:vectornator CDATA #FIXED "http://vectornator.io"
  vectornator:shadowAngle CDATA #IMPLIED >

<!ENTITY % SVG.filter.extra.content  "| feDropShadow" >
<!ELEMENT feDropShadow EMPTY>
<!ATTLIST feDropShadow
  xmlns:svg CDATA #FIXED "http://www.w3.org/Graphics/SVG/1.1/DTD/svg11.dtd"
  dx CDATA #IMPLIED>
<!ATTLIST feDropShadow
  xmlns:svg CDATA #FIXED "http://www.w3.org/Graphics/SVG/1.1/DTD/svg11.dtd"
  dy CDATA #IMPLIED>
<!ATTLIST feDropShadow
  xmlns:svg CDATA #FIXED "http://www.w3.org/Graphics/SVG/1.1/DTD/svg11.dtd"
  stdDeviation CDATA #IMPLIED>
<!ATTLIST feDropShadow
  xmlns:svg CDATA #FIXED "http://www.w3.org/Graphics/SVG/1.1/DTD/svg11.dtd"
  flood-opacity CDATA #IMPLIED>
<!ATTLIST feDropShadow
  xmlns:svg CDATA #FIXED "http://www.w3.org/Graphics/SVG/1.1/DTD/svg11.dtd"
  in CDATA #IMPLIED>
<!ATTLIST feDropShadow
  xmlns:svg CDATA #FIXED "http://www.w3.org/Graphics/SVG/1.1/DTD/svg11.dtd"
  result CDATA #IMPLIED>
<!ATTLIST feDropShadow
  xmlns:svg CDATA #FIXED "http://www.w3.org/Graphics/SVG/1.1/DTD/svg11.dtd"
  flood-color CDATA #IMPLIED>
]
>
<!-- Created with Vectornator (http://vectornator.io/) -->
<svg height="100%" stroke-miterlimit="10" style="fill-rule:nonzero;clip-rule:evenodd;stroke-linecap:round;stroke-linejoin:round;" version="1.1" viewBox="0 0 419.58 297.675" width="100%" xml:space="preserve" xmlns="http://www.w3.org/2000/svg" xmlns:vectornator="http://vectornator.io" xmlns:xlink="http://www.w3.org/1999/xlink">
<defs>
<clipPath id="TextBounds">
<rect height="71.2465" width="41.8434" x="159.963" y="146.142"/>
</clipPath>
<clipPath id="TextBounds_2">
<rect height="1" width="94.6992" x="153.159" y="155.738"/>
</clipPath>
<clipPath id="TextBounds_3">
<rect height="36.5632" width="46.0796" x="152.395" y="210.925"/>
</clipPath>
</defs>
<g id="Layer-1" vectornator:layerName="Layer 1">
<path d="M131.384 110.305L215.138 110.305C218.486 110.305 221.199 113.018 221.199 116.365L221.199 262.583C221.199 265.931 218.486 268.644 215.138 268.644L131.384 268.644C128.037 268.644 125.324 265.931 125.324 262.583L125.324 116.365C125.324 113.018 128.037 110.305 131.384 110.305Z" fill="#75b1d7" fill-rule="evenodd" opacity="1" stroke="none"/>
<path clip-path="url(#TextBounds)" d="M175.062 164.829C176.999 164.829 178.513 164.288 179.603 163.206C180.694 162.123 181.239 160.833 181.239 159.336C181.239 158.034 180.718 156.838 179.676 155.747C178.635 154.657 177.048 154.111 174.916 154.111C172.8 154.111 171.27 154.657 170.326 155.747C169.382 156.838 168.91 158.115 168.91 159.58C168.91 161.224 169.52 162.51 170.741 163.438C171.961 164.365 173.402 164.829 175.062 164.829ZM175.331 182.139C177.365 182.139 179.054 181.59 180.397 180.491C181.739 179.392 182.411 177.752 182.411 175.571C182.411 173.309 181.719 171.592 180.335 170.42C178.952 169.248 177.178 168.662 175.013 168.662C172.914 168.662 171.201 169.26 169.874 170.457C168.548 171.653 167.884 173.309 167.884 175.425C167.884 177.248 168.491 178.823 169.703 180.149C170.916 181.476 172.792 182.139 175.331 182.139ZM169.081 166.514C167.86 165.993 166.908 165.383 166.224 164.683C164.938 163.381 164.295 161.688 164.295 159.605C164.295 157 165.239 154.763 167.127 152.891C169.015 151.019 171.693 150.083 175.16 150.083C178.513 150.083 181.141 150.966 183.045 152.732C184.95 154.498 185.902 156.561 185.902 158.921C185.902 161.102 185.349 162.868 184.242 164.219C183.623 164.984 182.663 165.733 181.361 166.465C182.809 167.132 183.949 167.897 184.779 168.76C186.325 170.388 187.098 172.503 187.098 175.108C187.098 178.184 186.065 180.792 183.998 182.932C181.931 185.073 179.009 186.143 175.233 186.143C171.831 186.143 168.954 185.219 166.603 183.372C164.251 181.524 163.075 178.843 163.075 175.327C163.075 173.26 163.579 171.474 164.588 169.968C165.598 168.463 167.095 167.311 169.081 166.514Z" fill="#1f2326" fill-rule="evenodd" opacity="1" stroke="none"/>
<g fill="#1f2326" opacity="1" stroke="none"/>
<g fill="#1f2326" opacity="1" stroke="none">
<path clip-path="url(#TextBounds_3)" d="M155.418 215.58L157.312 215.58L157.312 222.572L164.305 215.58L166.99 215.58L161.023 221.361L167.156 229.925L164.627 229.925L159.607 222.728L157.312 224.925L157.312 229.925L155.418 229.925L155.418 215.58Z" fill-rule="evenodd"/>
<path clip-path="url(#TextBounds_3)" d="M170.867 215.58L170.867 224.447C170.867 225.489 171.062 226.354 171.453 227.045C172.033 228.086 173.009 228.607 174.383 228.607C176.03 228.607 177.15 228.044 177.742 226.918C178.061 226.306 178.221 225.482 178.221 224.447L178.221 215.58L180.193 215.58L180.193 223.636C180.193 225.401 179.956 226.758 179.48 227.709C178.608 229.44 176.961 230.306 174.539 230.306C172.117 230.306 170.473 229.44 169.607 227.709C169.132 226.758 168.895 225.401 168.895 223.636L168.895 215.58L170.867 215.58Z" fill-rule="evenodd"/>
<path clip-path="url(#TextBounds_3)" d="M183.201 215.58L185.096 215.58L185.096 222.572L192.088 215.58L194.773 215.58L188.807 221.361L194.939 229.925L192.41 229.925L187.391 222.728L185.096 224.925L185.096 229.925L183.201 229.925L183.201 215.58Z" fill-rule="evenodd"/>
</g>
</g>
</svg>
