<svg xmlns="http://www.w3.org/2000/svg" xmlns:vectornator="http://vectornator.io" xmlns:xlink="http://www.w3.org/1999/xlink" stroke-miterlimit="10" style="fill-rule:nonzero;clip-rule:evenodd;stroke-linecap:round;stroke-linejoin:round;" version="1.1" xml:space="preserve" viewBox="125.32 110.31 95.88 158.34">
<defs>
<clipPath id="TextBounds">
<rect height="71.2465" width="41.8434" x="159.963" y="146.142"/>
</clipPath>
</defs>
<g id="Layer-1" vectornator:layerName="Layer 1">
<path d="M131.384 110.305L215.138 110.305C218.486 110.305 221.199 113.018 221.199 116.365L221.199 262.583C221.199 265.931 218.486 268.644 215.138 268.644L131.384 268.644C128.037 268.644 125.324 265.931 125.324 262.583L125.324 116.365C125.324 113.018 128.037 110.305 131.384 110.305Z" fill="#75b1d7" fill-rule="evenodd" opacity="1" stroke="none"/>
<path clip-path="url(#TextBounds)" d="M177.992 172.764L177.992 156.919L166.786 172.764L177.992 172.764ZM178.065 185.142L178.065 176.597L162.733 176.597L162.733 172.3L178.749 150.083L182.46 150.083L182.46 172.764L187.611 172.764L187.611 176.597L182.46 176.597L182.46 185.142L178.065 185.142Z" fill="#1f2326" fill-rule="evenodd" opacity="1" stroke="none"/>
</g>
</svg>