<svg xmlns="http://www.w3.org/2000/svg" xmlns:vectornator="http://vectornator.io" xmlns:xlink="http://www.w3.org/1999/xlink" stroke-miterlimit="10" style="fill-rule:nonzero;clip-rule:evenodd;stroke-linecap:round;stroke-linejoin:round;" version="1.1" xml:space="preserve" viewBox="125.32 110.31 122.53 158.34">
<defs>
<clipPath id="TextBounds">
<rect height="71.2465" width="66.7092" x="143.585" y="146.142"/>
</clipPath>
<clipPath id="TextBounds_2">
<rect height="1" width="94.6992" x="153.159" y="155.738"/>
</clipPath>
<clipPath id="TextBounds_3">
<rect height="39.7937" width="88.2077" x="129.133" y="197.883"/>
</clipPath>
</defs>
<g id="Layer-1" vectornator:layerName="Layer 1">
<path d="M131.384 110.305L215.138 110.305C218.486 110.305 221.199 113.018 221.199 116.365L221.199 262.583C221.199 265.931 218.486 268.644 215.138 268.644L131.384 268.644C128.037 268.644 125.324 265.931 125.324 262.583L125.324 116.365C125.324 113.018 128.037 110.305 131.384 110.305Z" fill="#75b1d7" fill-rule="evenodd" opacity="1" stroke="none"/>
<g fill="#1f2326" opacity="1" stroke="none">
<path clip-path="url(#TextBounds)" d="M149.87 160.386L149.87 157.017C153.044 156.708 155.257 156.191 156.51 155.466C157.764 154.742 158.699 153.029 159.318 150.327L162.785 150.327L162.785 185.142L158.097 185.142L158.097 160.386L149.87 160.386Z" fill-rule="evenodd"/>
<path clip-path="url(#TextBounds)" d="M177.677 160.386L177.677 157.017C180.851 156.708 183.065 156.191 184.318 155.466C185.571 154.742 186.507 153.029 187.126 150.327L190.592 150.327L190.592 185.142L185.905 185.142L185.905 160.386L177.677 160.386Z" fill-rule="evenodd"/>
</g>
<g fill="#1f2326" opacity="1" stroke="none"/>
<g fill="#1f2326" opacity="1" stroke="none">
<path clip-path="url(#TextBounds_3)" d="M133.289 218.537L137.41 230.754L141.483 218.537L143.66 218.537L138.426 232.883L136.365 232.883L131.141 218.537L133.289 218.537Z" fill-rule="evenodd"/>
<path clip-path="url(#TextBounds_3)" d="M144.383 218.537L146.649 218.537L150.77 225.432L154.891 218.537L157.166 218.537L151.746 227.102L151.746 232.883L149.803 232.883L149.803 227.102L144.383 218.537ZM152.899 214.582L150.291 217.404L148.944 217.404L150.731 214.582L152.899 214.582Z" fill-rule="evenodd"/>
<path clip-path="url(#TextBounds_3)" d="M158.787 218.537L161.57 218.537L165.692 230.666L169.783 218.537L172.537 218.537L172.537 232.883L170.692 232.883L170.692 224.416C170.692 224.123 170.698 223.638 170.711 222.961C170.724 222.284 170.731 221.558 170.731 220.783L166.639 232.883L164.715 232.883L160.594 220.783L160.594 221.223C160.594 221.574 160.602 222.11 160.618 222.829C160.635 223.549 160.643 224.078 160.643 224.416L160.643 232.883L158.787 232.883L158.787 218.537Z" fill-rule="evenodd"/>
<path clip-path="url(#TextBounds_3)" d="M175.682 218.537L186.141 218.537L186.141 220.295L177.576 220.295L177.576 224.651L185.496 224.651L185.496 226.311L177.576 226.311L177.576 231.174L186.287 231.174L186.287 232.883L175.682 232.883L175.682 218.537ZM181.776 217.58L179.92 217.58L177.938 214.758L179.529 214.758L180.848 216.633L182.166 214.758L183.768 214.758L181.776 217.58Z" fill-rule="evenodd"/>
<path clip-path="url(#TextBounds_3)" d="M188.836 218.537L191.131 218.537L198.377 230.158L198.377 218.537L200.223 218.537L200.223 232.883L198.045 232.883L190.692 221.272L190.692 232.883L188.836 232.883L188.836 218.537Z" fill-rule="evenodd"/>
<path clip-path="url(#TextBounds_3)" d="M210.643 227.004L208.465 220.666L206.151 227.004L210.643 227.004ZM207.449 218.537L209.647 218.537L214.852 232.883L212.723 232.883L211.268 228.586L205.594 228.586L204.041 232.883L202.049 232.883L207.449 218.537Z" fill-rule="evenodd"/>
</g>
</g>
</svg>